<?xml version="1.0" encoding="utf-8"?>
<!-- Generator: Adobe Illustrator 21.1.0, SVG Export Plug-In . SVG Version: 6.00 Build 0)  -->
<svg version="1.1" id="Layer_1" xmlns="http://www.w3.org/2000/svg" xmlns:xlink="http://www.w3.org/1999/xlink" x="0px" y="0px"
	 viewBox="0 0 531 628" style="enable-background:new 0 0 531 628;" xml:space="preserve">
<style type="text/css">
	.st0{fill:#F2F2F2;}
	.st1{fill:#985F35;}
	.st2{fill:none;}
	.st3{fill:#173E34;}
	.st4{fill:#00702F;}
	.st5{fill:#B2B3B2;}
</style>
<g>
	<g>
		<path class="st0" d="M270.8,522.2c0-2.5-4.2-7.2-4.2-9.8c0-2.1,5.4-5.3,8.1-6.5c0,0-1.9,2.8-1,4.5c1.7,3.8,8,14.8,8,14.8h-35
			c0,0,4.4-5.9,4.8-5.9c0.3,0,1.5,2.9,3.8,2.9L270.8,522.2L270.8,522.2z M259.6,501.3c1.5,0,2.8,1.1,2.8,2.4s-1.3,2.4-2.8,2.4
			c-1.5,0-2.8-1.1-2.8-2.4S258.1,501.3,259.6,501.3z M259.6,506.8c1.5,0,2.8,1.1,2.8,2.4c0,1.3-1.3,2.4-2.8,2.4
			c-1.5,0-2.8-1.1-2.8-2.4C256.8,507.9,258.1,506.8,259.6,506.8z"/>
		<path class="st0" d="M297.7,525.2h-12.6c0,0,3-2,3-4.6v-21.9c0-1.5-0.9-2.1-2-3.2l7.1-5.5l0.5,0.8c-1.1,1.4-1.2,2.8-1.2,4.5v21
			c0,4.5-1.8,5.4-2.2,5.7h7.4L297.7,525.2L297.7,525.2z"/>
		<path class="st0" d="M311,527.2c-4.4,0-8.9-2.6-11.4-3.7c0,0-0.3,1.7-2,1.7h-4.2v-3h5c-1.3-1.4-2.2-1.4-2.2-3.7
			c0-2.5,7.2-8.3,13.7-11.5c-0.3,0.9-0.7,2.3-0.3,3.3c2.1,4.8,6.7,13.4,6.7,13.4C315,525.1,313.8,527.2,311,527.2z M302.3,516.8
			c0,3,4.8,5.4,6.6,5.4c-1.2-2.4-3.3-5.7-4.3-7.7C303.5,515,302.3,515.6,302.3,516.8z"/>
		<path class="st0" d="M354.8,522.2h3.7v3h-37.3c1.8-2.4,5.6-5.4,5.6-5.4c3.9,2.8,8.8,2.8,13.6,2.8c3,0,1.5,0.4,5.8-0.5
			c-0.5-1.8-2.4-6.6-7.5-6.6h-16c0.5-0.8,5.4-6.9,6.9-8.4c-0.7,2-2,4-0.5,5.3c1,0.8,1.3,0.7,3.3,0.9h10.7c4.2,0,4.8,0.5,6.9,2
			C351.2,516.1,353.4,519.5,354.8,522.2z"/>
		<path class="st0" d="M366.1,516.7c0.3,0.3,0.5,0.7,0.7,1c0.6,0.8,2,2.6,3.8,4.5h6.1v3h-3.3c1.1,1.1,2.2,2.1,3.1,2.8l-2.2,2.1
			c-1.8-1-4.4-2.7-7-4.9h-14.8v-3h11.4c-1.1-1-2-2-2.8-3.1c-3.6-4.4-7.4-10.1-7.4-11.9c0-2.2,2.6-3.7,6.5-5.7
			c-1.2,2.2-0.7,3.1-0.1,4.5c0.9,2.4,2.4,5.1,4,7.7h8.2v-14.3c0-3.1-1.5-3-2.7-4.1l7.7-5.3v26.6L366.1,516.7L366.1,516.7z
			 M360.9,491.7c1.5,0,2.8,1.1,2.8,2.4s-1.3,2.4-2.8,2.4c-1.5,0-2.8-1.1-2.8-2.4S359.4,491.7,360.9,491.7z"/>
		<path class="st0" d="M381,495.8l7.7-5.7v30.7c0,2-0.3,6,4.8,6c2.9,0,5.8-2,5.9-1.4c0.1,0.7-4.6,3.2-7.7,3.2c-1.4,0-2.8-0.4-3.7-1
			c-2.9-1.6-3.6-3.9-3.6-6.8c0,0,0-17.6,0-19.2C384.3,500.7,384,497.1,381,495.8z"/>
		<path class="st0" d="M428.3,524.2h-10.5c-3.9,0-7.1-1.2-8.9-3c-2-2-2.2-6.3,0.5-8.6l9.5-7.9l0.1,1.8c-0.8,0.9-1.4,1.8-0.9,2.7
			l6.7,12h3.4L428.3,524.2L428.3,524.2z M412,491.6c1.4,0,2.6,1,2.6,2.3c0,1.2-1.2,2.3-2.6,2.3c-1.4,0-2.6-1.1-2.6-2.3
			C409.4,492.6,410.6,491.6,412,491.6z M412,496.8c1.4,0,2.6,1,2.6,2.3c0,1.2-1.2,2.3-2.6,2.3c-1.4,0-2.6-1-2.6-2.3
			C409.4,497.9,410.6,496.8,412,496.8z M414.2,518.3c0,1,1,1.9,2.2,1.9c1.3,0,2.2-0.9,2.2-1.9c0-1.1-1-1.9-2.2-1.9
			C415.1,516.4,414.2,517.2,414.2,518.3z"/>
		<path class="st0" d="M423.5,524.2v-2.8h36.4c-2.3-4.9-5.4-5.5-8.5-5.5h-25.2l2.6-2.8c3.3-1.5,6.6-3.3,10.1-6.3
			c8-6.8,9-10.5,10.4-13.6c1.6,4.4-0.6,9.4-4,12.5c-5.1,4.7-9.4,6.6-13,7.7h25.8c6.7,0,8.4,5.1,10.6,10.8L423.5,524.2L423.5,524.2z"
			/>
		<path class="st0" d="M484.7,524.2c-1.3,1.8-3.6,3.5-7.5,6c-3.2,2-10.4,6.6-10.4,6.6c0-0.7,0.2-0.9,0.8-1.4c2.2-2,12.1-7,12.1-10.2
			c0-1.5-4.6-8.1-5.5-9.5c-1.2-1.9,1.5-3.3,6.1-5.9c-0.6,1.7-1,1.7-0.3,3.2c0.8,1.8,4.5,6.8,5.7,8.3h3.1v2.8L484.7,524.2
			L484.7,524.2z"/>
		<path class="st0" d="M486.3,521.4c0.9,0,1.9-1.3,5.3-3.7c0,0,0.8,1.4,1.3,2.4c1,1.7,4,1.3,4,1.3l-1.9-3.9c-1.1-2.3,1.1-3.2,5-5.9
			l4,8.2c0.6,1.3,3.3,1.5,4,1.5c-0.7-1.5-3.6-7.4-4.9-10.2c-1-2.1,3.2-3.9,7.1-6.5c-0.5,1.6-1,2.1-0.6,3.4c0.8,3,8.9,16.2,6.8,16.1
			h-33.1v-2.8L486.3,521.4L486.3,521.4z M491.4,499.5c0-1.2,1.2-2.3,2.6-2.3c1.4,0,2.6,1.1,2.6,2.3c0,1.2-1.2,2.3-2.6,2.3
			C492.6,501.8,491.4,500.8,491.4,499.5z M496.8,491.4c1.4,0,2.6,1,2.6,2.3c0,1.2-1.2,2.3-2.6,2.3c-1.4,0-2.6-1-2.6-2.3
			C494.2,492.4,495.4,491.4,496.8,491.4z M497.3,499.5c0-1.2,1.2-2.3,2.6-2.3s2.6,1.1,2.6,2.3c0,1.2-1.2,2.3-2.6,2.3
			S497.3,500.8,497.3,499.5z"/>
		<path class="st0" d="M151.3,525.8h-12c-4.4,0-8-1.4-10.1-3.4c-2.2-2.2-2.5-7.1,0.6-9.6l10.8-8.8l0.1,2c-0.9,1-1.6,2-1,3.1
			l7.6,13.5h3.9L151.3,525.8L151.3,525.8z M132.9,489.1c1.6,0,2.9,1.2,2.9,2.6c0,1.4-1.3,2.6-2.9,2.6c-1.6,0-3-1.2-3-2.6
			C129.9,490.3,131.3,489.1,132.9,489.1z M132.9,495c1.6,0,2.9,1.2,2.9,2.6s-1.3,2.6-2.9,2.6c-1.6,0-3-1.2-3-2.6
			S131.3,495,132.9,495z M135.3,519.1c0,1.2,1.1,2.2,2.5,2.2c1.4,0,2.5-1,2.5-2.2c0-1.2-1.1-2.1-2.5-2.1
			C136.4,517,135.3,518,135.3,519.1z"/>
		<path class="st0" d="M164.4,528c-4.7,0-9.4-2.7-12-4c0,0-0.3,1.8-2.1,1.8h-4.4v-3.2h5.3c-1.3-1.5-2.3-1.5-2.3-4
			c0-2.7,7.6-8.9,14.4-12.3c-0.3,0.9-0.7,2.5-0.4,3.5c2.3,5.1,7.1,14.3,7.1,14.3C168.6,525.7,167.3,528,164.4,528z M155.2,516.9
			c0,3.1,5.1,5.7,6.9,5.8c-1.2-2.5-3.5-6-4.5-8.2C156.6,514.9,155.2,515.5,155.2,516.9z"/>
		<path class="st0" d="M186.8,525.8h-13.2c0,0,3.2-2.1,3.2-4.8v-23.3c0-1.6-1-2.2-2.2-3.4l7.5-5.9l0.5,0.9c-1.1,1.5-1.3,3-1.3,4.8
			v22.4c0,4.8-1.9,5.8-2.3,6.1h7.8V525.8z"/>
		<path class="st0" d="M212,522.6v3.2h-14.8l-2-1.8l-1.9,1.8h-11.8v-3.2h10.5c-1.3-1-8.4-7.8-8.4-7.8s3-2.1,5.2-3.7
			c2.3-1.7,6-4.7,6-4.7s3.6,3,6,4.7c2.2,1.6,5.2,3.7,5.2,3.7s-7,6.8-8.4,7.8L212,522.6L212,522.6z M192.4,517.8l2.7,2.7l2.7-3
			c0,0-1.2-2-2.7-2C193.6,515.6,192.4,517.8,192.4,517.8z"/>
		<path class="st0" d="M216.4,525.8h-8.8v-3.2h4.2V505c0.1-3.3-1.6-3.2-2.8-4.3l7.5-5.6V525.8z"/>
		<path class="st0" d="M221.1,494.5l8.1-6.1v32.7c0,2.1-0.4,6.4,5.1,6.4c3,0,6.1-2.1,6.2-1.5c0.1,0.8-4.8,3.4-8.1,3.4
			c-1.4,0-3-0.5-3.9-1c-3.1-1.7-3.8-4.1-3.8-7.3c0,0,0-18.8,0-20.5C224.7,499.8,224.3,495.9,221.1,494.5z"/>
		<g>
			<path class="st0" d="M24.8,526.1c-0.9-0.5-3.7-0.8-5-0.9c-2-0.1-4,0.4-4.6,1.4c0.3,1.1,1.6,6.7,1.6,8.7c0,1.5-0.7,5.2-0.9,5.2
				c-0.1,0-0.2-1.5-0.5-3.4c-0.6-3.7-1.4-9.2-1.6-9.7c0.5-1.6,1.3-2.6,1.5-2.9c0.3-0.4,3.5-2.7,6-1.5l0.9,0.4c0,0-0.2-0.4-0.3-0.5
				c-1-1.3-1.8-2.6-3.2-2.7c-1.1-0.1-2.3,1.4-2.6,1.4c-0.6,0,1.8-3.8,4.2-3.8c0.8,0,2.2,2,2.9,3c0.6,0.8,1.7,2.4,2.3,2.7
				C25.7,523.3,25.1,525.3,24.8,526.1z"/>
			<path class="st0" d="M31,526.7l-2.9-2.2l1.7-2.5l2.8,2.1L31,526.7z"/>
			<path class="st0" d="M56.2,512.6l-0.1-0.1c0.3,4.1,0.8,8.8,0.8,8.9c0,1.2-0.5,5.3-1.1,5.3c-15.5,0,0,0-15.5,0
				c-2.5,0-4.3-2.1-4.3-4.5c0-2.3,1.3-5.4,1.8-5.4c0.8,0-1,3.7-0.4,5c0.6,1.3,1.6,2.2,3.9,2.2c14.1,0,0,0,14.1,0
				c0.5,0-0.9-8.4-1.6-12.9c-0.6-0.4-0.5-0.9-0.3-1.4l1.2-2.6c0.1-0.2,0.3-0.7,0.5-0.6c0.6,0.3-0.5,1.2,0.3,1.7
				c0.9,0.5,1.2,0.9,2,1.3L56.2,512.6z M48.8,513.6c-0.5,0.3-1.8,0.9-2.5,2c-0.4,1.2,2.4,0.6,2.4,1.7c0,1.1-0.5,2-1.9,3.3
				c-0.6,0.5-3.1,0.2-3.1,0.2c0-0.6,3.5-0.9,3.5-1.9c0-0.6-2.3-0.4-2.3-1.6c0-1.2,2.8-5.7,4.7-5.7C49.3,512.7,48.8,513.2,48.8,513.6
				z"/>
			<path class="st0" d="M62.6,526.7l-2.9-2.2l1.7-2.5l2.8,2.1L62.6,526.7z"/>
			<path class="st0" d="M78.8,526.1c-0.9-0.5-3.7-0.8-5-0.9c-2-0.1-4,0.4-4.6,1.4c0.3,1.1,1.6,6.7,1.7,8.7c0,1.5-0.7,5.2-0.9,5.2
				c-0.1,0-0.2-1.5-0.5-3.4c-0.6-3.7-1.4-9.2-1.6-9.7c0.5-1.6,1.3-2.6,1.5-2.9c0.3-0.4,3.5-2.7,6-1.5l0.9,0.4c0,0-0.2-0.4-0.3-0.5
				c-1-1.3-1.8-2.6-3.2-2.7c-1.1-0.1-2.3,1.4-2.6,1.4c-0.6,0,1.8-3.8,4.2-3.8c0.8,0,2.2,2,2.9,3c0.6,0.8,1.7,2.4,2.3,2.7
				C79.7,523.3,79.1,525.3,78.8,526.1z"/>
			<path class="st0" d="M85.3,526.7l-2.9-2.2l1.7-2.5l2.8,2.1L85.3,526.7z"/>
			<path class="st0" d="M104.8,526.7c0,0.8-0.8,3-1.1,3.6c-1.1,1.9-3.7,4.2-8.7,4.2c-3.6,0-5.3-2.6-5.3-5.2c0-2.9,2-7.8,2.8-7.8
				c0.5,0-1.5,3.6-1.5,5.5c0,3.8,2.7,4.8,5.1,4.8c1,0,7.3-1.2,7.3-3.9c0-2.6-1.8-5.3-2-5.8c0,0,0.9-2.4,1.3-3.1
				c0.3,0.5,1,1.9,1.4,3.2c0.3,0.8,0.6,1.5,1,1.8c2,0,0.3,0,0.3,0v2.8C105.2,526.7,106.1,526.7,104.8,526.7z"/>
			<path class="st0" d="M115.4,526.6c0,0-2.4,0.6-4.1,0c-0.5-0.2-1.2-0.7-1.3-0.7c-0.2,0-0.6,0.5-1,0.7c-1.1,0.1-2.6,0.1-4,0.1
				c0-0.7,0-2.8,0-2.8h4.8c0,0,0.3,0.2,0.1-2c0.1-0.9,1.7-2.4,2.4-3c0,0-0.6,2.6-1,4.6c0,0.3,0.6,0.4,0.8,0.4
				c1.1,0.2,2.9,0.2,2.9,0.2s-0.2-1.8-0.5-2.9c-0.2-0.5,1.5-2,2-2.8v4C116.3,524.7,115.5,526.4,115.4,526.6z M111.7,515.5l-2.8-1.8
				l-0.8,1.6l-2.9-1.8l1.2-2.3l3,2l0.8-1.7l2.7,1.8L111.7,515.5z M108.7,510.7l-2.8-1.8l1.1-2.1l2.9,1.6L108.7,510.7z"/>
		</g>
	</g>
	<g>
		<g>
			<path class="st0" d="M12.4,550.1h11.2c3.9,0,6.8,0.7,8.8,2.1c3.7,2.5,5.5,7.2,5.5,14.2c0,5.1-1.2,9-3.5,11.8
				c-2.5,2.9-5.6,4.4-9.3,4.4c-0.3,0-0.9,0-1.5-0.1v23.6h4v0.9H12.4v-0.9h2.8v-55.1h-2.8V550.1z M23.6,581.6c0.8,0,1.4,0.1,1.7,0.1
				c1.4,0,2.4-0.4,3-1.1c0.6-0.7,0.9-2.2,0.9-4.7v-19c0-2.1-0.1-3.4-0.4-3.8c-0.5-1.3-1.9-1.9-4.2-1.9h-1L23.6,581.6L23.6,581.6z"/>
			<path class="st0" d="M62.9,607.1h-9.7V604c-0.6,0.9-1.3,1.7-2,2.2c-1.2,0.9-2.7,1.4-4.5,1.4c-2.5,0-4.1-0.9-4.9-2.6
				c-0.4-0.9-0.6-2.7-0.6-5.3v-32.8h-2.2v-0.9h9.8v35.6c0,1.9,0.1,2.9,0.2,3.1c0.2,0.6,0.6,0.9,1.1,0.9c0.9,0,1.6-0.7,2.3-2
				c0.6-1.3,0.9-3.4,0.9-6.5v-30.2h-2.2v-0.9h9.7v40.3h2.2C62.9,606.1,62.9,607.1,62.9,607.1z"/>
			<path class="st0" d="M64.4,549.3h9.8v19.1c0.6-0.9,1.1-1.6,1.6-2c0.7-0.7,1.6-1,2.7-1c1.3,0,2.4,0.4,3.4,1.2
				c1,0.8,1.7,1.8,2.2,3.2c1.6,4.4,2.4,10.4,2.4,17.7c0,4.7-0.6,8.8-1.7,12.3c-1.2,4-2.8,6.4-4.6,7.3c-0.8,0.4-1.7,0.6-2.7,0.6
				c-1.8,0-3.2-0.8-4.1-2.4c-0.7-1.2-1.2-2.7-1.6-4.7l-4.3,6.7h-0.9v-56.8h-2.2V549.3z M78.6,603.6v-32.4c0-2.1-0.1-3.4-0.4-4
				c-0.2-0.4-0.5-0.6-1-0.6c-0.7,0-1.4,0.5-1.9,1.6c-0.8,1.5-1.2,3.6-1.2,6.2v24.2c0,2.9,0.1,4.9,0.4,5.8c0.4,1.5,1.1,2.3,2.2,2.3
				c0.7,0,1.2-0.3,1.5-0.8C78.5,605.5,78.6,604.7,78.6,603.6z"/>
			<path class="st0" d="M98.7,549.3v56.8h2.2v0.9H89.1v-0.9h2.2v-55.9h-2.2v-0.9L98.7,549.3L98.7,549.3z"/>
			<path class="st0" d="M112.6,565.8v40.3h2.2v0.9H103v-0.9h2.2v-39.3H103v-0.9H112.6z M108.8,549c1.1,0,2.1,0.4,2.9,1.2
				c0.8,0.8,1.2,1.8,1.2,2.9c0,1.1-0.4,2.1-1.2,2.9c-0.8,0.8-1.8,1.2-3,1.2c-1.2,0-2.2-0.4-3-1.2c-0.8-0.8-1.2-1.7-1.2-2.9
				c0-1.2,0.4-2.1,1.2-2.9C106.6,549.4,107.6,549,108.8,549z"/>
			<path class="st0" d="M136,565.8v17h-1c-1.1-6.1-2.2-10.5-3.5-13.2c-1-2.2-2.4-3.3-4-3.3c-1.4,0-2.1,1.3-2.1,3.8v28.6
				c0,3.3,0.1,5.3,0.4,6.1c0.4,1.1,1,1.6,1.9,1.6c1.3,0,2.7-0.9,3.9-2.7c2.3-3.1,3.4-7.6,3.4-13.4v-2.4h1v2.5
				c0,5.5-1.1,9.9-3.3,13.5c-1.5,2.4-3.6,3.7-6.4,3.7c-2.9,0-5-1.1-6.1-3.4c-1.4-2.6-2.2-5.9-2.4-9.7c-0.2-2.7-0.3-5.3-0.3-7.9
				c0-9.8,1.4-16.1,4.1-18.9c1.4-1.4,3.2-2.2,5.2-2.2c1.5,0,2.8,0.4,3.7,1.3c0.3,0.3,0.9,0.9,1.8,2l2.6-2.8L136,565.8L136,565.8z"/>
			<path class="st0" d="M175.6,550.1v22.2h-1.2c0-2.2-0.6-5.9-1.8-11.2c-1.6-7.2-4-10.8-7-10.8c-2.3,0-3.5,1.7-3.5,5
				c0,2.2,0.6,4.6,1.7,7c1.3,2.9,3.2,6.7,5.7,11.3c2.9,5.3,4.7,9.1,5.7,11.4c1.5,3.7,2.2,7.1,2.2,10.1c0,3.7-1,6.7-2.9,9.2
				c-1.8,2.3-4.2,3.4-7.2,3.4c-2.8,0-5-1.2-6.7-3.5l-4.2,2.8h-1.1V583h1.1c0.6,6.8,1.8,12.6,3.5,17.5c0.7,1.8,1.6,3.4,2.7,4.5
				c1.1,1.1,2.2,1.6,3.4,1.6c1,0,1.8-0.4,2.6-1.1c1.1-1.1,1.6-2.9,1.6-5.4c0-2.7-0.6-5.6-1.9-8.8c-0.6-1.5-2.2-4.9-4.9-10.1
				c-3.8-7.4-6-12.1-6.7-14.1c-0.7-2.1-1.1-4-1.1-5.8c0-3.1,0.9-5.8,2.6-8.1c1.9-2.5,4.3-3.8,7.1-3.8c1.7,0,3,0.5,4,1.5
				c0.3,0.4,0.8,1,1.5,1.8l3.7-2.6L175.6,550.1L175.6,550.1z"/>
			<path class="st0" d="M200.2,590.2c0,4.4-0.4,8-1.3,10.7c-0.8,2.3-2,4-3.8,5.2c-1.4,0.9-3,1.4-4.7,1.4c-3.7,0-6.4-2.1-8-6.2
				c-1.2-3-1.8-8-1.8-14.9c0-7.9,0.8-13.4,2.5-16.5c1.6-3,4-4.4,7.3-4.4c2.1,0,3.9,0.6,5.2,1.8c2.6,2.3,4.1,6.5,4.6,12.6
				c0.2,1.9,0.2,4.2,0.3,6.9h-12v14.4c0,2.5,0.2,4.1,0.5,4.6c0.4,0.6,1.1,0.9,2,0.9c1.8,0,3.5-0.9,5-2.6c2.1-2.4,3.1-7,3.2-13.9
				L200.2,590.2L200.2,590.2z M188.4,585.7h4.4v-15.5c0-1.4-0.1-2.4-0.4-2.9c-0.3-0.7-0.9-1-1.8-1c-0.8,0-1.5,0.3-1.9,1
				c-0.3,0.5-0.4,1.5-0.4,2.9L188.4,585.7L188.4,585.7z"/>
			<path class="st0" d="M203.1,565.8h9.7v4.3c1.1-3.2,2.7-4.8,5-4.8c1.1,0,2,0.3,2.8,1c1.9,1.5,2.8,3.7,2.8,6.5c0,2.3-0.6,4-1.8,5
				c-0.6,0.5-1.3,0.8-2.1,0.8c-1,0-1.8-0.4-2.5-1.1c-0.9-1-1.4-2.4-1.4-4.1c0-3.3,1.1-5.6,3.3-6.8c-0.4-0.2-0.8-0.3-1.2-0.3
				c-1.5,0-2.7,1-3.6,3c-0.9,2-1.4,5.2-1.4,9.4v27.4h3.3v0.9h-12.9v-0.9h2.2v-39.4h-2.2L203.1,565.8L203.1,565.8z"/>
			<path class="st0" d="M223.9,565.8H236v0.9h-2.3l4.3,30.8l3.3-25.5c0.2-1.5,0.3-2.5,0.3-3c0-1.5-0.7-2.3-2-2.3h-0.5v-0.9h6.4v0.9
				H245c-0.7,0-1.3,0.3-1.7,1c-0.2,0.6-0.5,2.2-0.9,4.7l-4.6,34.6H232l-5.9-40.3h-2.2L223.9,565.8L223.9,565.8z"/>
			<path class="st0" d="M256,565.8v40.3h2.2v0.9h-11.9v-0.9h2.2v-39.3h-2.2v-0.9H256z M252.2,549c1.1,0,2.1,0.4,2.9,1.2
				c0.8,0.8,1.2,1.8,1.2,2.9c0,1.1-0.4,2.1-1.2,2.9c-0.8,0.8-1.8,1.2-3,1.2c-1.2,0-2.2-0.4-3-1.2c-0.8-0.8-1.2-1.7-1.2-2.9
				c0-1.2,0.4-2.1,1.2-2.9C250,549.4,251,549,252.2,549z"/>
			<path class="st0" d="M279.3,565.8v17h-1c-1.1-6.1-2.2-10.5-3.5-13.2c-1-2.2-2.4-3.3-4-3.3c-1.4,0-2.1,1.3-2.1,3.8v28.6
				c0,3.3,0.1,5.3,0.4,6.1c0.4,1.1,1,1.6,1.9,1.6c1.3,0,2.7-0.9,3.9-2.7c2.2-3.1,3.4-7.6,3.4-13.4v-2.4h1v2.5
				c0,5.5-1.1,9.9-3.2,13.5c-1.5,2.4-3.6,3.7-6.4,3.7c-2.9,0-5-1.1-6.1-3.4c-1.4-2.6-2.2-5.9-2.4-9.7c-0.2-2.7-0.3-5.3-0.3-7.9
				c0-9.8,1.4-16.1,4.1-18.9c1.4-1.4,3.2-2.2,5.2-2.2c1.5,0,2.8,0.4,3.7,1.3c0.3,0.3,0.9,0.9,1.8,2l2.7-2.8L279.3,565.8L279.3,565.8
				z"/>
			<path class="st0" d="M302.1,590.2c0,4.4-0.4,8-1.3,10.7c-0.8,2.3-2,4-3.8,5.2c-1.4,0.9-2.9,1.4-4.7,1.4c-3.7,0-6.4-2.1-8-6.2
				c-1.2-3-1.8-8-1.8-14.9c0-7.9,0.8-13.4,2.5-16.5c1.6-3,4-4.4,7.3-4.4c2.1,0,3.9,0.6,5.2,1.8c2.6,2.3,4.1,6.5,4.6,12.6
				c0.2,1.9,0.2,4.2,0.3,6.9h-12v14.4c0,2.5,0.2,4.1,0.5,4.6c0.4,0.6,1.1,0.9,2,0.9c1.8,0,3.5-0.9,5-2.6c2.1-2.4,3.1-7,3.2-13.9
				L302.1,590.2L302.1,590.2z M290.4,585.7l4.4,0v-15.5c0-1.4-0.1-2.4-0.4-2.9c-0.3-0.7-0.9-1-1.8-1c-0.9,0-1.5,0.3-1.9,1
				c-0.2,0.5-0.3,1.5-0.3,2.9V585.7z"/>
			<path class="st0" d="M321.5,565.8v16.9h-1c-0.2-5.2-0.8-9.3-2-12.5c-1-2.5-2.1-3.8-3.5-3.8c-0.6,0-1.1,0.2-1.6,0.7
				c-0.7,0.7-1,1.7-1,3.2c0,2,0.7,4.4,2,7.1c1.1,2.1,2.8,5.2,5.1,9.1c2.3,3.9,3.5,7.7,3.5,11.3c0,3-1.1,5.6-3.2,7.7
				c-1.4,1.3-3,2-4.9,2c-1.7,0-3.4-1-4.9-3l-2.5,2.5h-0.7v-18.4h1.1c0.1,4.7,0.7,8.9,2,12.7c1.1,3.3,2.5,5,4.3,5
				c0.8,0,1.5-0.4,2.2-1.2c0.6-0.9,1-2,1-3.5c0-1.4-0.3-2.7-0.7-4.1c-0.3-0.8-1.1-2.4-2.5-4.9l-2.2-3.9c-2.2-4.1-3.7-6.8-4.2-8.2
				c-0.7-1.9-1.1-3.8-1.1-5.7c0-3.5,1.1-6.1,3.4-7.9c1.3-1,2.7-1.5,4.3-1.5c2.1,0,3.7,1,4.7,3l2-2.5L321.5,565.8L321.5,565.8z"/>
			<path class="st0" d="M364.1,550.1v23.2h-1c-0.4-4.1-1.2-8.5-2.3-13.3c-0.7-3.1-1.8-5.6-3.1-7.5c-1-1.4-2.1-2.1-3.4-2.1
				c-1,0-1.7,0.5-2.1,1.5c-0.3,0.7-0.4,1.9-0.4,3.9v43c0,3.4,0.2,5.6,0.7,6.5c0.5,1,1.3,1.6,2.3,1.6c1.7,0,3.3-1.2,4.7-3.5
				c2.4-4,3.6-10,3.6-17.9v-1.7h1v1.5c0,7.9-1.1,13.8-3.4,17.8c-1.7,3.1-4,4.6-6.7,4.6c-3.7,0-6.5-2.2-8.4-6.6c-1.8-4-2.6-11-2.6-21
				c0-6.9,0.2-12.2,0.7-15.9c0.7-5.6,2.4-9.7,4.9-12.3c1.7-1.7,3.4-2.6,5.3-2.6c2.2,0,4,1.4,5.6,4.2l3.5-3.5L364.1,550.1
				L364.1,550.1z"/>
			<path class="st0" d="M377.6,565.4c3.8,0,6.4,1.8,7.9,5.3c1.3,3,2,8.2,2,15.4c0,8-0.8,13.5-2.4,16.5c-1.8,3.3-4.4,5-7.8,5
				c-3.7,0-6.4-2.1-8.1-6.3c-1.3-3.1-1.9-8-1.9-14.8c0-8.5,0.9-14.1,2.7-16.8C371.8,566.8,374.4,565.4,377.6,565.4z M375.1,571.4
				v30.1c0,2.4,0.3,3.9,0.7,4.4c0.4,0.5,1,0.7,1.6,0.7c0.7,0,1.3-0.3,1.7-0.8c0.4-0.6,0.6-2,0.6-4.2v-30.1c0-2.4-0.3-3.9-0.8-4.4
				c-0.4-0.4-1-0.7-1.6-0.7c-0.8,0-1.3,0.3-1.7,0.8C375.3,567.7,375.1,569.1,375.1,571.4z"/>
			<path class="st0" d="M395.9,598.6c1,0,1.9,0.4,2.5,1.3c0.7,0.9,1.1,2,1.1,3.3c0,1.3-0.4,2.3-1.1,3.2c-0.7,0.9-1.6,1.3-2.6,1.3
				c-1.1,0-2-0.4-2.7-1.3c-0.7-0.9-1.1-2-1.1-3.2c0-1.3,0.3-2.4,1.1-3.3C393.9,599,394.8,598.6,395.9,598.6z"/>
		</g>
		<g>
			<path class="st0" d="M411.5,604.9v-25.6h2.7V592l10-12.6h3.6l-8.4,10.4l8.8,15.2h-3.5l-7.2-12.9l-3.3,4v8.8L411.5,604.9
				L411.5,604.9z"/>
			<path class="st0" d="M430.7,604.9v-3.6h2.8v3.6H430.7z"/>
			<path class="st0" d="M437.3,596.7l2.5-0.3c0.1,1.3,0.4,2.3,0.8,3.1c0.4,0.8,1.1,1.5,2,2c0.9,0.5,2,0.8,3.1,0.8
				c1,0,1.9-0.2,2.7-0.6c0.8-0.4,1.3-0.9,1.7-1.6c0.4-0.7,0.6-1.4,0.6-2.2c0-0.8-0.2-1.5-0.5-2.1c-0.4-0.6-0.9-1.1-1.8-1.5
				c-0.5-0.3-1.7-0.7-3.6-1.3c-1.8-0.6-3.1-1.1-3.9-1.6c-1-0.6-1.7-1.4-2.2-2.4c-0.5-0.9-0.7-2-0.7-3.2c0-1.3,0.3-2.5,0.9-3.6
				c0.6-1.1,1.4-2,2.5-2.6c1.1-0.6,2.3-0.9,3.7-0.9c1.5,0,2.8,0.3,3.9,0.9c1.2,0.6,2,1.5,2.6,2.7c0.6,1.2,0.9,2.5,1,4l-2.6,0.2
				c-0.1-1.6-0.6-2.8-1.4-3.6c-0.8-0.8-1.9-1.2-3.5-1.2c-1.6,0-2.8,0.4-3.5,1.1c-0.7,0.7-1.1,1.6-1.1,2.7c0,0.9,0.3,1.7,0.8,2.3
				c0.5,0.6,1.8,1.2,4,1.8c2.1,0.6,3.6,1.1,4.4,1.6c1.1,0.7,2,1.5,2.6,2.6c0.5,1,0.8,2.3,0.8,3.6c0,1.3-0.3,2.6-0.9,3.8
				c-0.6,1.2-1.5,2.1-2.6,2.8c-1.2,0.7-2.4,1-3.9,1c-1.8,0-3.3-0.3-4.6-1c-1.2-0.7-2.2-1.7-2.9-3
				C437.7,599.9,437.3,598.4,437.3,596.7z"/>
			<path class="st0" d="M457.3,604.9v-3.6h2.8v3.6H457.3z"/>
			<path class="st0" d="M479.2,595.9l2.7,0.8c-0.6,2.8-1.6,4.9-3,6.4c-1.5,1.5-3.2,2.2-5.3,2.2c-2.2,0-3.9-0.6-5.3-1.7
				c-1.4-1.1-2.4-2.7-3.1-4.9c-0.7-2.1-1.1-4.4-1.1-6.8c0-2.7,0.4-5,1.2-7c0.8-2,1.9-3.5,3.4-4.5c1.5-1,3.1-1.5,4.9-1.5
				c2,0,3.7,0.7,5.1,2c1.4,1.3,2.3,3.1,2.9,5.5l-2.6,0.8c-0.5-1.9-1.1-3.2-2-4.1c-0.9-0.8-2-1.3-3.3-1.3c-1.6,0-2.9,0.5-3.9,1.4
				c-1,0.9-1.8,2.2-2.2,3.8c-0.4,1.6-0.6,3.2-0.6,4.9c0,2.2,0.2,4.1,0.8,5.7c0.5,1.6,1.3,2.8,2.3,3.6c1,0.8,2.2,1.2,3.4,1.2
				c1.5,0,2.8-0.5,3.8-1.6C478.1,599.6,478.8,598,479.2,595.9z"/>
			<path class="st0" d="M485.4,604.9v-3.6h2.8v3.6H485.4z"/>
			<path class="st0" d="M507.3,595.9l2.7,0.8c-0.6,2.8-1.6,4.9-3,6.4c-1.4,1.5-3.2,2.2-5.3,2.2c-2.2,0-3.9-0.6-5.3-1.7
				c-1.4-1.1-2.4-2.7-3.1-4.9c-0.7-2.1-1.1-4.4-1.1-6.8c0-2.7,0.4-5,1.2-7c0.8-2,1.9-3.5,3.4-4.5c1.5-1,3.1-1.5,4.9-1.5
				c2,0,3.7,0.7,5.1,2c1.4,1.3,2.3,3.1,2.9,5.5l-2.6,0.8c-0.5-1.9-1.1-3.2-2-4.1c-0.9-0.8-2-1.3-3.4-1.3c-1.5,0-2.8,0.5-3.9,1.4
				c-1,0.9-1.8,2.2-2.2,3.8c-0.4,1.6-0.6,3.2-0.6,4.9c0,2.2,0.2,4.1,0.7,5.7c0.5,1.6,1.3,2.8,2.3,3.6c1.1,0.8,2.2,1.2,3.4,1.2
				c1.5,0,2.7-0.5,3.8-1.6C506.2,599.6,506.9,598,507.3,595.9z"/>
			<path class="st0" d="M513.6,604.9v-3.6h2.8v3.6H513.6z"/>
		</g>
	</g>
</g>
<g>
	<g>
		<g>
			<polygon class="st1" points="153,295.5 153,61.3 278.4,61.3 278.4,69.6 161.3,69.6 161.3,295.5 161.3,295.5 			"/>
			<path class="st1" d="M153,297.6v-2.1h2.1H153V297.6h-2.1V59.2h129.6v12.5l-117.1,0v223.8h-2.1v2.1L153,297.6L153,297.6z"/>
		</g>
		<path class="st2" d="M275.8,224.3c39.9-5.9,71.2-34.5,73.8-71c2.5-36.3-24.1-68.8-62.6-80.4C271.9,112.4,259.2,168.2,275.8,224.3z
			"/>
		<path class="st2" d="M179.6,337.9c2.5,36.2,33.2,64.5,72.7,70.8c12.4-39.6,10.9-74.7-13.8-150.2
			C202,271.1,177.1,302.7,179.6,337.9z"/>
		<path class="st3" d="M179.6,337.9c-2.5-35.2,22.4-66.8,58.9-79.3c-1-3-2-6-3-9.1c-0.7,0-1.5,0-2.2,0.1
			c-65,4.5-115.1,46.3-111.8,93.2c3.3,46.9,58.7,81.2,123.7,76.6c1.2-0.1,2.4-0.2,3.6-0.3c1.3-3.5,2.4-6.9,3.5-10.3
			C212.8,402.4,182.1,374.1,179.6,337.9z"/>
		<path class="st1" d="M295.9,64.9c-1.9-0.1-3.8-0.1-5.7-0.2c-1.1,2.6-2.2,5.4-3.2,8.2c38.4,11.6,65.1,44.1,62.6,80.4
			c-2.6,36.5-33.8,65-73.8,71c-7.4,1.1-15.1,1.5-23,1c-8.4-0.6-16.3-2.2-23.9-4.5c14.8,7,31.8,11.7,50,13.6c1.7,0.2,3.3,0.4,5,0.5
			c65,4.6,120.4-29.7,123.7-76.6C411,111.2,361,69.5,295.9,64.9z"/>
		<path class="st4" d="M265.3,253.1c5.2-0.4,10.4-0.2,15.4,0.1c-14.1-3.4-29.4-4.7-45.3-3.8c1,3.1,2.1,6.2,3,9.1
			C246.8,255.7,255.9,253.8,265.3,253.1z"/>
		<path class="st5" d="M262.6,14.9c-22.5,42.1-61.1,135-28.3,231.3c0.4,1.1,0.7,2.2,1.1,3.3c15.9-0.9,31.2,0.5,45.3,3.8
			c-5-0.4-10.2-0.5-15.4-0.1c-9.4,0.7-18.5,2.6-26.9,5.4c24.7,75.5,26.2,110.5,13.8,150.2c-1.1,3.4-2.2,6.8-3.5,10.3
			c-4.8,13.2-11.2,27.9-18.4,44.4l50.2,0c29.6-70.5,37.7-112.4-1.7-229.2c-18.3-1.9-35.2-6.6-50-13.6c7.6,2.3,15.5,3.9,23.9,4.5
			c7.9,0.6,15.6,0.2,23-1c-16.6-56.1-4-111.9,11.2-151.4c1.1-2.8,2.1-5.5,3.2-8.2c11.8-28.5,24-46.7,24.3-47.1l0.7-1
			c0,0,1.1-1.7,1.1-1.7L262.6,14.9z"/>
	</g>
	<path class="st1" d="M298.4,414.1h65.4V194.7h12.5v231.8l-81.5,0L298.4,414.1z"/>
</g>
</svg>
